<?xml version="1.0" encoding="utf-8"?>
<svg xmlns="http://www.w3.org/2000/svg" xmlns:xlink="http://www.w3.org/1999/xlink" width="400" height="300" viewBox="0 0 1600 1200">
<defs>
  <clipPath id="clip210">
    <rect x="0" y="0" width="1600" height="1200"/>
  </clipPath>
</defs>
<path clip-path="url(#clip210)" d="M0 1200 L1600 1200 L1600 0 L0 0  Z" fill="#ffffff" fill-rule="evenodd" fill-opacity="1"/>
<defs>
  <clipPath id="clip211">
    <rect x="320" y="0" width="1121" height="1121"/>
  </clipPath>
</defs>
<path clip-path="url(#clip210)" d="M132.696 1016.92 L1552.76 1016.92 L1552.76 111.592 L132.696 111.592  Z" fill="#ffffff" fill-rule="evenodd" fill-opacity="1"/>
<defs>
  <clipPath id="clip212">
    <rect x="132" y="111" width="1421" height="906"/>
  </clipPath>
</defs>
<polyline clip-path="url(#clip212)" style="stroke:#000000; stroke-linecap:round; stroke-linejoin:round; stroke-width:2; stroke-opacity:0.1; fill:none" points="300.806,1016.92 300.806,111.592 "/>
<polyline clip-path="url(#clip212)" style="stroke:#000000; stroke-linecap:round; stroke-linejoin:round; stroke-width:2; stroke-opacity:0.1; fill:none" points="571.766,1016.92 571.766,111.592 "/>
<polyline clip-path="url(#clip212)" style="stroke:#000000; stroke-linecap:round; stroke-linejoin:round; stroke-width:2; stroke-opacity:0.1; fill:none" points="842.726,1016.92 842.726,111.592 "/>
<polyline clip-path="url(#clip212)" style="stroke:#000000; stroke-linecap:round; stroke-linejoin:round; stroke-width:2; stroke-opacity:0.1; fill:none" points="1113.69,1016.92 1113.69,111.592 "/>
<polyline clip-path="url(#clip212)" style="stroke:#000000; stroke-linecap:round; stroke-linejoin:round; stroke-width:2; stroke-opacity:0.1; fill:none" points="1384.65,1016.92 1384.65,111.592 "/>
<polyline clip-path="url(#clip210)" style="stroke:#000000; stroke-linecap:round; stroke-linejoin:round; stroke-width:4; stroke-opacity:1; fill:none" points="132.696,1016.92 1552.76,1016.92 "/>
<polyline clip-path="url(#clip210)" style="stroke:#000000; stroke-linecap:round; stroke-linejoin:round; stroke-width:4; stroke-opacity:1; fill:none" points="300.806,1016.92 300.806,998.022 "/>
<polyline clip-path="url(#clip210)" style="stroke:#000000; stroke-linecap:round; stroke-linejoin:round; stroke-width:4; stroke-opacity:1; fill:none" points="571.766,1016.92 571.766,998.022 "/>
<polyline clip-path="url(#clip210)" style="stroke:#000000; stroke-linecap:round; stroke-linejoin:round; stroke-width:4; stroke-opacity:1; fill:none" points="842.726,1016.92 842.726,998.022 "/>
<polyline clip-path="url(#clip210)" style="stroke:#000000; stroke-linecap:round; stroke-linejoin:round; stroke-width:4; stroke-opacity:1; fill:none" points="1113.69,1016.92 1113.69,998.022 "/>
<polyline clip-path="url(#clip210)" style="stroke:#000000; stroke-linecap:round; stroke-linejoin:round; stroke-width:4; stroke-opacity:1; fill:none" points="1384.65,1016.92 1384.65,998.022 "/>
<path clip-path="url(#clip210)" d="M291.188 1068.98 L298.827 1068.98 L298.827 1042.62 L290.517 1044.29 L290.517 1040.03 L298.781 1038.36 L303.457 1038.36 L303.457 1068.98 L311.095 1068.98 L311.095 1072.92 L291.188 1072.92 L291.188 1068.98 Z" fill="#000000" fill-rule="nonzero" fill-opacity="1" /><path clip-path="url(#clip210)" d="M566.419 1068.98 L582.738 1068.98 L582.738 1072.92 L560.794 1072.92 L560.794 1068.98 Q563.456 1066.23 568.039 1061.6 Q572.646 1056.95 573.826 1055.61 Q576.071 1053.08 576.951 1051.35 Q577.854 1049.59 577.854 1047.9 Q577.854 1045.14 575.909 1043.41 Q573.988 1041.67 570.886 1041.67 Q568.687 1041.67 566.234 1042.43 Q563.803 1043.2 561.025 1044.75 L561.025 1040.03 Q563.849 1038.89 566.303 1038.31 Q568.757 1037.73 570.794 1037.73 Q576.164 1037.73 579.358 1040.42 Q582.553 1043.11 582.553 1047.6 Q582.553 1049.73 581.743 1051.65 Q580.956 1053.54 578.849 1056.14 Q578.27 1056.81 575.169 1060.03 Q572.067 1063.22 566.419 1068.98 Z" fill="#000000" fill-rule="nonzero" fill-opacity="1" /><path clip-path="url(#clip210)" d="M846.973 1054.29 Q850.33 1055 852.205 1057.27 Q854.103 1059.54 854.103 1062.87 Q854.103 1067.99 850.584 1070.79 Q847.066 1073.59 840.585 1073.59 Q838.409 1073.59 836.094 1073.15 Q833.802 1072.73 831.348 1071.88 L831.348 1067.36 Q833.293 1068.5 835.608 1069.08 Q837.923 1069.66 840.446 1069.66 Q844.844 1069.66 847.135 1067.92 Q849.45 1066.18 849.45 1062.87 Q849.45 1059.82 847.297 1058.11 Q845.168 1056.37 841.348 1056.37 L837.321 1056.37 L837.321 1052.53 L841.534 1052.53 Q844.983 1052.53 846.811 1051.16 Q848.64 1049.77 848.64 1047.18 Q848.64 1044.52 846.742 1043.11 Q844.867 1041.67 841.348 1041.67 Q839.427 1041.67 837.228 1042.09 Q835.029 1042.5 832.39 1043.38 L832.39 1039.22 Q835.052 1038.48 837.367 1038.11 Q839.705 1037.73 841.765 1037.73 Q847.089 1037.73 850.191 1040.17 Q853.293 1042.57 853.293 1046.69 Q853.293 1049.56 851.649 1051.55 Q850.006 1053.52 846.973 1054.29 Z" fill="#000000" fill-rule="nonzero" fill-opacity="1" /><path clip-path="url(#clip210)" d="M1116.69 1042.43 L1104.89 1060.88 L1116.69 1060.88 L1116.69 1042.43 M1115.47 1038.36 L1121.35 1038.36 L1121.35 1060.88 L1126.28 1060.88 L1126.28 1064.77 L1121.35 1064.77 L1121.35 1072.92 L1116.69 1072.92 L1116.69 1064.77 L1101.09 1064.77 L1101.09 1060.26 L1115.47 1038.36 Z" fill="#000000" fill-rule="nonzero" fill-opacity="1" /><path clip-path="url(#clip210)" d="M1374.92 1038.36 L1393.28 1038.36 L1393.28 1042.3 L1379.21 1042.3 L1379.21 1050.77 Q1380.22 1050.42 1381.24 1050.26 Q1382.26 1050.07 1383.28 1050.07 Q1389.07 1050.07 1392.45 1053.24 Q1395.83 1056.42 1395.83 1061.83 Q1395.83 1067.41 1392.35 1070.51 Q1388.88 1073.59 1382.56 1073.59 Q1380.39 1073.59 1378.12 1073.22 Q1375.87 1072.85 1373.46 1072.11 L1373.46 1067.41 Q1375.55 1068.54 1377.77 1069.1 Q1379.99 1069.66 1382.47 1069.66 Q1386.47 1069.66 1388.81 1067.55 Q1391.15 1065.44 1391.15 1061.83 Q1391.15 1058.22 1388.81 1056.11 Q1386.47 1054.01 1382.47 1054.01 Q1380.59 1054.01 1378.72 1054.42 Q1376.87 1054.84 1374.92 1055.72 L1374.92 1038.36 Z" fill="#000000" fill-rule="nonzero" fill-opacity="1" /><path clip-path="url(#clip210)" d="M857.846 1106.38 Q857.846 1105.31 857.556 1104.44 Q857.298 1103.54 856.879 1102.93 Q856.493 1102.29 855.752 1101.8 Q855.012 1101.29 854.4 1100.97 Q853.788 1100.64 852.757 1100.45 Q851.727 1100.23 851.05 1100.13 Q850.374 1100 849.214 1099.94 Q848.055 1099.87 847.475 1099.87 Q846.928 1099.87 845.833 1099.87 Q842.387 1099.87 841.807 1099.94 Q840.938 1100.06 840.615 1100.58 Q840.293 1101.06 839.971 1102.38 L835.688 1119.58 L843.063 1119.58 Q847.089 1119.58 849.859 1118.45 Q852.628 1117.33 854.206 1115.75 Q855.945 1114.01 856.879 1111.21 Q857.846 1108.41 857.846 1106.38 M865.028 1136.75 Q865.028 1137.1 864.738 1137.91 Q864.48 1138.71 863.836 1139.84 Q863.192 1140.93 862.322 1141.93 Q861.453 1142.93 860.068 1143.61 Q858.683 1144.31 857.105 1144.31 Q856.718 1144.31 856.332 1144.28 Q855.945 1144.28 854.979 1144.12 Q854.045 1143.99 853.272 1143.74 Q852.499 1143.51 851.533 1142.96 Q850.567 1142.45 849.891 1141.74 Q849.247 1141 848.796 1139.84 Q848.345 1138.65 848.345 1137.2 Q848.345 1135.91 849.408 1131.59 Q850.342 1127.92 850.342 1127.02 Q850.342 1126.02 850.02 1125.09 Q849.73 1124.15 848.989 1123.19 Q848.28 1122.22 846.767 1121.64 Q845.253 1121.03 843.128 1121.03 L835.302 1121.03 L830.922 1138.52 Q830.922 1138.55 830.825 1139 Q830.728 1139.42 830.728 1139.65 Q830.728 1140.06 830.986 1140.32 Q831.276 1140.58 831.984 1140.71 Q832.693 1140.8 833.24 1140.84 Q833.82 1140.84 835.012 1140.84 Q836.493 1140.84 836.751 1141.09 Q836.88 1141.26 836.88 1141.55 Q836.88 1142 836.751 1142.32 Q836.654 1142.61 836.397 1142.7 Q836.171 1142.8 836.01 1142.83 Q835.849 1142.87 835.559 1142.87 L827.186 1142.67 L818.877 1142.87 Q817.943 1142.87 817.943 1142.12 Q817.943 1141.48 818.168 1141.22 Q818.393 1140.93 818.683 1140.9 Q818.973 1140.84 819.714 1140.84 Q821.324 1140.84 822.29 1140.74 Q823.257 1140.64 823.868 1140.51 Q824.513 1140.35 824.835 1139.9 Q825.189 1139.45 825.35 1139.07 Q825.511 1138.65 825.736 1137.71 L834.561 1102.29 Q834.818 1101.22 834.818 1101.06 Q834.818 1100.45 834.432 1100.29 Q834.078 1100.1 833.047 1100 L830.535 1099.87 Q829.762 1099.87 829.44 1099.84 Q829.15 1099.81 828.925 1099.65 Q828.699 1099.48 828.699 1099.13 Q828.699 1098.23 829.086 1098.04 Q829.472 1097.81 830.599 1097.81 L849.408 1097.81 Q855.817 1097.81 859.875 1100.61 Q863.965 1103.41 863.965 1107.7 Q863.965 1109.63 863.095 1111.43 Q862.226 1113.24 860.776 1114.65 Q859.359 1116.07 857.459 1117.26 Q855.559 1118.42 853.53 1119.23 Q851.533 1120 849.472 1120.45 Q850.374 1120.77 851.211 1121.26 Q852.081 1121.74 853.176 1122.64 Q854.303 1123.54 854.979 1124.99 Q855.656 1126.44 855.656 1128.21 Q855.656 1129.47 855.398 1131.34 Q854.754 1136.65 854.754 1138.84 Q854.754 1140.93 855.301 1141.9 Q855.849 1142.87 857.395 1142.87 Q858.908 1142.87 860.583 1141.51 Q862.29 1140.13 863.385 1136.88 Q863.643 1135.94 864.255 1135.94 Q864.287 1135.94 864.319 1135.94 Q864.383 1135.94 864.512 1136.01 Q864.641 1136.04 864.738 1136.13 Q864.867 1136.2 864.931 1136.36 Q865.028 1136.52 865.028 1136.75 Z" fill="#000000" fill-rule="nonzero" fill-opacity="1" /><polyline clip-path="url(#clip212)" style="stroke:#000000; stroke-linecap:round; stroke-linejoin:round; stroke-width:2; stroke-opacity:0.1; fill:none" points="132.696,1016.92 1552.76,1016.92 "/>
<polyline clip-path="url(#clip212)" style="stroke:#000000; stroke-linecap:round; stroke-linejoin:round; stroke-width:2; stroke-opacity:0.1; fill:none" points="132.696,750.588 1552.76,750.588 "/>
<polyline clip-path="url(#clip212)" style="stroke:#000000; stroke-linecap:round; stroke-linejoin:round; stroke-width:2; stroke-opacity:0.1; fill:none" points="132.696,484.257 1552.76,484.257 "/>
<polyline clip-path="url(#clip212)" style="stroke:#000000; stroke-linecap:round; stroke-linejoin:round; stroke-width:2; stroke-opacity:0.1; fill:none" points="132.696,217.925 1552.76,217.925 "/>
<polyline clip-path="url(#clip210)" style="stroke:#000000; stroke-linecap:round; stroke-linejoin:round; stroke-width:4; stroke-opacity:1; fill:none" points="132.696,1016.92 132.696,111.592 "/>
<polyline clip-path="url(#clip210)" style="stroke:#000000; stroke-linecap:round; stroke-linejoin:round; stroke-width:4; stroke-opacity:1; fill:none" points="132.696,1016.92 151.593,1016.92 "/>
<polyline clip-path="url(#clip210)" style="stroke:#000000; stroke-linecap:round; stroke-linejoin:round; stroke-width:4; stroke-opacity:1; fill:none" points="132.696,750.588 151.593,750.588 "/>
<polyline clip-path="url(#clip210)" style="stroke:#000000; stroke-linecap:round; stroke-linejoin:round; stroke-width:4; stroke-opacity:1; fill:none" points="132.696,484.257 151.593,484.257 "/>
<polyline clip-path="url(#clip210)" style="stroke:#000000; stroke-linecap:round; stroke-linejoin:round; stroke-width:4; stroke-opacity:1; fill:none" points="132.696,217.925 151.593,217.925 "/>
<path clip-path="url(#clip210)" d="M96.7512 1002.72 Q93.1401 1002.72 91.3114 1006.28 Q89.5058 1009.82 89.5058 1016.95 Q89.5058 1024.06 91.3114 1027.63 Q93.1401 1031.17 96.7512 1031.17 Q100.385 1031.17 102.191 1027.63 Q104.02 1024.06 104.02 1016.95 Q104.02 1009.82 102.191 1006.28 Q100.385 1002.72 96.7512 1002.72 M96.7512 999.015 Q102.561 999.015 105.617 1003.62 Q108.696 1008.2 108.696 1016.95 Q108.696 1025.68 105.617 1030.29 Q102.561 1034.87 96.7512 1034.87 Q90.941 1034.87 87.8623 1030.29 Q84.8068 1025.68 84.8068 1016.95 Q84.8068 1008.2 87.8623 1003.62 Q90.941 999.015 96.7512 999.015 Z" fill="#000000" fill-rule="nonzero" fill-opacity="1" /><path clip-path="url(#clip210)" d="M57.3995 763.933 L65.0384 763.933 L65.0384 737.568 L56.7282 739.234 L56.7282 734.975 L64.9921 733.308 L69.668 733.308 L69.668 763.933 L77.3068 763.933 L77.3068 767.868 L57.3995 767.868 L57.3995 763.933 Z" fill="#000000" fill-rule="nonzero" fill-opacity="1" /><path clip-path="url(#clip210)" d="M96.7512 736.387 Q93.1401 736.387 91.3114 739.952 Q89.5058 743.493 89.5058 750.623 Q89.5058 757.729 91.3114 761.294 Q93.1401 764.836 96.7512 764.836 Q100.385 764.836 102.191 761.294 Q104.02 757.729 104.02 750.623 Q104.02 743.493 102.191 739.952 Q100.385 736.387 96.7512 736.387 M96.7512 732.683 Q102.561 732.683 105.617 737.29 Q108.696 741.873 108.696 750.623 Q108.696 759.35 105.617 763.956 Q102.561 768.54 96.7512 768.54 Q90.941 768.54 87.8623 763.956 Q84.8068 759.35 84.8068 750.623 Q84.8068 741.873 87.8623 737.29 Q90.941 732.683 96.7512 732.683 Z" fill="#000000" fill-rule="nonzero" fill-opacity="1" /><path clip-path="url(#clip210)" d="M60.6171 497.602 L76.9365 497.602 L76.9365 501.537 L54.9921 501.537 L54.9921 497.602 Q57.6541 494.847 62.2375 490.217 Q66.8439 485.565 68.0245 484.222 Q70.2698 481.699 71.1494 479.963 Q72.0522 478.204 72.0522 476.514 Q72.0522 473.759 70.1078 472.023 Q68.1865 470.287 65.0847 470.287 Q62.8856 470.287 60.4319 471.051 Q58.0014 471.815 55.2236 473.366 L55.2236 468.643 Q58.0477 467.509 60.5014 466.93 Q62.955 466.352 64.9921 466.352 Q70.3624 466.352 73.5568 469.037 Q76.7513 471.722 76.7513 476.213 Q76.7513 478.342 75.9411 480.264 Q75.1541 482.162 73.0476 484.754 Q72.4689 485.426 69.367 488.643 Q66.2652 491.838 60.6171 497.602 Z" fill="#000000" fill-rule="nonzero" fill-opacity="1" /><path clip-path="url(#clip210)" d="M96.7512 470.055 Q93.1401 470.055 91.3114 473.62 Q89.5058 477.162 89.5058 484.291 Q89.5058 491.398 91.3114 494.963 Q93.1401 498.504 96.7512 498.504 Q100.385 498.504 102.191 494.963 Q104.02 491.398 104.02 484.291 Q104.02 477.162 102.191 473.62 Q100.385 470.055 96.7512 470.055 M96.7512 466.352 Q102.561 466.352 105.617 470.958 Q108.696 475.542 108.696 484.291 Q108.696 493.018 105.617 497.625 Q102.561 502.208 96.7512 502.208 Q90.941 502.208 87.8623 497.625 Q84.8068 493.018 84.8068 484.291 Q84.8068 475.542 87.8623 470.958 Q90.941 466.352 96.7512 466.352 Z" fill="#000000" fill-rule="nonzero" fill-opacity="1" /><path clip-path="url(#clip210)" d="M70.7559 216.571 Q74.1124 217.289 75.9874 219.557 Q77.8855 221.826 77.8855 225.159 Q77.8855 230.275 74.367 233.076 Q70.8485 235.876 64.3671 235.876 Q62.1912 235.876 59.8764 235.437 Q57.5847 235.02 55.131 234.164 L55.131 229.65 Q57.0754 230.784 59.3903 231.363 Q61.7051 231.941 64.2282 231.941 Q68.6263 231.941 70.918 230.205 Q73.2328 228.469 73.2328 225.159 Q73.2328 222.103 71.08 220.39 Q68.9504 218.654 65.131 218.654 L61.1032 218.654 L61.1032 214.812 L65.3161 214.812 Q68.7652 214.812 70.5939 213.446 Q72.4226 212.057 72.4226 209.465 Q72.4226 206.803 70.5245 205.391 Q68.6495 203.955 65.131 203.955 Q63.2097 203.955 61.0106 204.372 Q58.8115 204.789 56.1727 205.668 L56.1727 201.502 Q58.8347 200.761 61.1495 200.391 Q63.4875 200.02 65.5476 200.02 Q70.8717 200.02 73.9735 202.451 Q77.0753 204.858 77.0753 208.978 Q77.0753 211.849 75.4318 213.84 Q73.7883 215.807 70.7559 216.571 Z" fill="#000000" fill-rule="nonzero" fill-opacity="1" /><path clip-path="url(#clip210)" d="M96.7512 203.724 Q93.1401 203.724 91.3114 207.289 Q89.5058 210.83 89.5058 217.96 Q89.5058 225.066 91.3114 228.631 Q93.1401 232.173 96.7512 232.173 Q100.385 232.173 102.191 228.631 Q104.02 225.066 104.02 217.96 Q104.02 210.83 102.191 207.289 Q100.385 203.724 96.7512 203.724 M96.7512 200.02 Q102.561 200.02 105.617 204.627 Q108.696 209.21 108.696 217.96 Q108.696 226.687 105.617 231.293 Q102.561 235.876 96.7512 235.876 Q90.941 235.876 87.8623 231.293 Q84.8068 226.687 84.8068 217.96 Q84.8068 209.21 87.8623 204.627 Q90.941 200.02 96.7512 200.02 Z" fill="#000000" fill-rule="nonzero" fill-opacity="1" /><path clip-path="url(#clip210)" d="M632.523 11.9771 Q632.523 12.8262 632.143 13.0019 Q631.791 13.1775 630.503 13.1775 Q628.307 13.1775 627.312 13.4703 Q626.346 13.7338 626.053 14.2023 Q625.789 14.6414 625.467 15.9297 L617.357 48.3112 Q617.357 48.3405 617.269 48.7504 Q617.182 49.131 617.182 49.3359 Q617.182 49.7166 617.416 49.9508 Q617.679 50.185 618.323 50.3021 Q618.968 50.39 619.465 50.4192 Q619.992 50.4192 621.076 50.4192 Q622.422 50.4192 622.627 50.6535 Q622.744 50.7998 622.744 51.0633 Q622.744 51.6196 622.51 51.9124 Q622.305 52.1759 622.1 52.2345 Q621.925 52.2638 621.573 52.2638 Q620.958 52.2638 619.641 52.2052 Q618.323 52.1466 617.65 52.1466 L613.815 52.0881 L606.202 52.2638 Q605.383 52.2638 605.383 51.5904 Q605.383 51.0048 605.588 50.7413 Q605.792 50.4778 605.997 50.4485 Q606.232 50.4192 606.817 50.4192 Q609.833 50.4192 610.828 50.1265 Q611.853 49.8044 612.263 48.4283 L616.391 31.8862 L598.122 31.8862 L594.023 48.3112 Q594.023 48.3405 593.935 48.7504 Q593.847 49.131 593.847 49.3359 Q593.847 49.7166 594.081 49.9508 Q594.345 50.185 594.989 50.3021 Q595.633 50.39 596.131 50.4192 Q596.658 50.4192 597.741 50.4192 Q599.088 50.4192 599.322 50.6535 Q599.439 50.7998 599.439 51.0633 Q599.439 51.4732 599.322 51.766 Q599.234 52.0295 599 52.1174 Q598.795 52.2052 598.649 52.2345 Q598.502 52.2638 598.239 52.2638 Q597.624 52.2638 596.306 52.2052 Q595.018 52.1466 594.345 52.1466 L590.509 52.0881 L582.897 52.2638 Q582.048 52.2638 582.048 51.5904 Q582.048 51.0048 582.253 50.7706 Q582.458 50.5071 582.721 50.4778 Q582.985 50.4192 583.658 50.4192 Q585.122 50.4192 586 50.3314 Q586.879 50.2436 587.435 50.1265 Q588.021 49.9801 588.313 49.5702 Q588.636 49.1603 588.782 48.8089 Q588.928 48.4283 589.133 47.5793 L597.155 15.3734 Q597.39 14.4072 597.39 14.2608 Q597.39 13.7046 597.038 13.5582 Q596.716 13.3825 595.779 13.2947 L593.496 13.1775 Q592.793 13.1775 592.5 13.1483 Q592.237 13.119 592.032 12.9726 Q591.827 12.8262 591.827 12.5042 Q591.827 12.0943 591.915 11.8308 Q592.032 11.538 592.237 11.4501 Q592.442 11.3623 592.588 11.333 Q592.734 11.3038 592.969 11.3038 L600.698 11.4794 L608.369 11.3038 Q609.218 11.3038 609.218 11.9771 Q609.218 12.8262 608.837 13.0019 Q608.457 13.1775 607.169 13.1775 Q605.031 13.1775 604.036 13.4703 Q603.04 13.7338 602.718 14.2023 Q602.425 14.6707 602.133 15.9297 L598.59 30.0124 L616.889 30.0124 L620.49 15.3734 Q620.724 14.3194 620.724 14.2608 Q620.724 13.7046 620.373 13.5582 Q620.051 13.3825 619.114 13.2947 L616.83 13.1775 Q616.128 13.1775 615.835 13.1483 Q615.571 13.119 615.337 12.9726 Q615.132 12.8262 615.132 12.5042 Q615.132 12.0943 615.22 11.8308 Q615.337 11.538 615.542 11.4501 Q615.747 11.3623 615.893 11.333 Q616.04 11.3038 616.274 11.3038 L624.003 11.4794 L631.704 11.3038 Q632.523 11.3038 632.523 11.9771 Z" fill="#000000" fill-rule="nonzero" fill-opacity="1" /><path clip-path="url(#clip210)" d="M638.571 37.2734 Q638.571 27.1432 642.348 18.9746 Q643.959 15.5491 646.213 12.6798 Q648.467 9.81057 649.961 8.55161 Q651.454 7.29266 651.864 7.29266 Q652.449 7.29266 652.479 7.87822 Q652.479 8.171 651.688 8.90295 Q642.026 18.7404 642.056 37.2734 Q642.056 55.865 651.454 65.3218 Q652.479 66.3465 652.479 66.6686 Q652.479 67.2541 651.864 67.2541 Q651.454 67.2541 650.019 66.0537 Q648.585 64.8533 646.359 62.1012 Q644.134 59.349 642.524 55.9821 Q638.571 47.8135 638.571 37.2734 Z" fill="#000000" fill-rule="nonzero" fill-opacity="1" /><path clip-path="url(#clip210)" d="M709.201 13.8802 Q708.879 15.1392 708.176 15.6955 Q706.83 16.7787 706.127 16.7787 Q705.336 16.7787 705.102 16.3981 Q704.839 15.9882 704.751 15.3734 Q704.663 14.9342 704.282 14.4365 Q703.755 13.646 702.526 13.646 Q700.915 13.646 699.422 14.8464 Q698.31 15.6955 697.168 16.9544 Q696.026 18.2134 695.353 19.121 Q694.708 19.9993 693.596 21.6096 Q690.112 26.6455 687.857 31.6227 Q687.828 31.8569 687.711 33.1745 Q687.594 34.492 687.565 34.8433 Q687.535 35.1654 687.447 36.2779 Q687.36 37.3612 687.33 37.8882 Q687.33 38.386 687.301 39.2936 Q687.301 40.1719 687.33 40.9039 Q687.36 41.6358 687.418 42.4263 Q687.623 46.2617 689.468 48.8968 Q690.141 49.7458 691.927 49.7458 Q693.186 49.7458 694.972 48.3112 Q697.519 46.2617 698.866 42.602 L700.125 42.8362 Q699.1 46.9937 694.855 50.4778 Q691.956 52.7908 689.058 52.7908 Q686.071 52.7908 684.959 51.2976 Q683.993 49.9508 683.641 46.818 Q683.173 43.8024 683.173 38.5909 Q680.86 42.3385 678.84 45.0028 Q676.82 47.6378 674.243 49.6873 Q670.408 52.7908 666.133 52.7908 Q663.703 52.7908 662.59 51.3561 Q661.595 50.1265 662.063 48.2527 Q662.415 46.9351 663.03 46.4374 Q664.201 45.5005 664.991 45.5005 Q666.045 45.5005 666.455 46.0861 Q667.011 46.7302 666.924 48.0184 Q666.924 48.8968 667.275 49.3945 Q667.743 50.0386 668.885 50.0386 Q671.052 50.0386 673.101 48.3698 Q675.502 46.4667 678.313 42.7777 Q681.094 39.0593 684.08 33.9064 Q685.134 24.5082 684.959 20.175 Q684.871 17.862 684.432 15.8126 Q684.198 14.3779 683.173 13.119 Q682.499 12.0943 680.245 12.0943 Q678.137 12.0943 676.468 13.2947 Q675.121 14.2316 674.887 15.3734 Q674.594 16.3396 674.594 17.0715 Q674.594 17.2179 674.712 18.2426 Q674.829 19.2381 674.653 19.4138 Q674.477 20.2043 673.277 21.1412 Q672.574 21.6975 671.667 21.6975 Q671.022 21.6975 670.349 21.0241 Q670.115 20.6434 670.086 20.0579 Q670.056 19.443 670.115 19.0624 Q670.173 18.6818 670.349 17.8913 Q671.022 15.1099 674.009 12.7384 Q677.522 9.92768 682.324 9.92768 Q686.247 9.92768 687.74 11.86 Q688.179 12.4749 688.472 13.4118 Q688.765 14.3487 688.853 15.0221 Q688.941 15.6662 689.058 16.8959 Q689.38 20.702 688.853 25.7671 Q689.526 24.069 694.094 18.3305 Q697.138 14.5536 699.305 12.8555 Q702.409 10.3376 705.483 10.3376 Q707.737 10.3376 708.762 11.6844 Q709.552 12.6505 709.201 13.8802 Z" fill="#000000" fill-rule="nonzero" fill-opacity="1" /><path clip-path="url(#clip210)" d="M734.483 53.6674 Q734.483 54.8356 733.766 55.5324 Q733.069 56.2292 732.188 56.2292 Q731.409 56.2292 730.999 55.7784 Q730.589 55.3275 730.589 54.7536 Q730.589 54.5077 730.692 54.2003 Q730.794 53.8724 731.019 53.483 Q731.265 53.0936 731.778 52.8066 Q732.29 52.5197 732.987 52.4787 Q732.843 52.3353 732.802 52.3148 Q732.495 52.0688 731.921 51.9868 Q731.839 51.9459 731.552 51.9459 Q730.138 51.9459 728.704 52.9911 Q727.289 54.0158 725.547 55.9628 Q723.354 58.2377 721.94 59.078 Q728.15 59.8978 728.15 63.4843 Q728.15 64.0787 727.986 64.796 Q727.658 66.1486 727.658 67.1324 Q727.658 69.0999 728.99 69.0999 Q730.282 69.0999 731.101 67.7882 Q731.942 66.4766 732.639 63.9147 Q732.741 63.4434 732.843 63.2999 Q732.946 63.1564 733.233 63.1564 Q733.745 63.1564 733.745 63.5663 Q733.274 65.9642 732.229 67.8087 Q730.896 70.0426 728.909 70.0426 Q727.248 70.0426 726.142 68.8949 Q725.056 67.7267 725.056 65.8822 Q725.056 65.4313 725.219 64.4066 Q725.342 63.9967 725.342 63.5253 Q725.342 62.5621 724.81 61.8448 Q724.277 61.107 723.416 60.7381 Q722.555 60.3692 721.838 60.2052 Q721.141 60.0207 720.465 59.9593 Q718.415 68.6285 718.128 69.1614 Q717.944 69.5303 717.534 69.7762 Q717.124 70.0426 716.694 70.0426 Q716.284 70.0426 715.874 69.7557 Q715.485 69.4893 715.485 68.8539 Q715.485 68.526 715.648 67.9317 L721.735 43.748 L721.858 42.9282 Q721.858 42.6823 721.756 42.5593 Q721.674 42.4159 721.182 42.3134 Q720.711 42.2109 719.768 42.2109 Q719.378 42.2109 719.194 42.1904 Q719.03 42.1699 718.887 42.0674 Q718.743 41.9445 718.743 41.6985 Q718.743 41.3501 718.887 41.1657 Q719.051 40.9607 719.174 40.9197 Q719.297 40.8788 719.542 40.8583 Q719.891 40.8378 721.059 40.7353 Q722.227 40.6123 723.231 40.5303 Q724.236 40.4484 724.666 40.4484 Q724.912 40.4484 725.035 40.5713 Q725.178 40.6738 725.199 40.7968 L725.219 40.8992 L720.854 58.6066 Q722.658 57.8893 725.506 54.7126 Q728.806 51.0236 731.634 51.0236 Q732.966 51.0236 733.725 51.8434 Q734.483 52.6427 734.483 53.6674 Z" fill="#000000" fill-rule="nonzero" fill-opacity="1" /><path clip-path="url(#clip210)" d="M740.697 66.6686 Q740.697 66.3758 741.458 65.6438 Q751.12 55.8064 751.12 37.2734 Q751.12 18.6818 741.839 9.28356 Q740.697 8.20028 740.697 7.87822 Q740.697 7.29266 741.283 7.29266 Q741.692 7.29266 743.127 8.49306 Q744.591 9.69346 746.787 12.4456 Q749.012 15.1977 750.652 18.5647 Q754.604 26.7333 754.604 37.2734 Q754.604 47.4036 750.827 55.5722 Q749.217 58.9977 746.963 61.867 Q744.708 64.7362 743.215 65.9952 Q741.722 67.2541 741.283 67.2541 Q740.697 67.2541 740.697 66.6686 Z" fill="#000000" fill-rule="nonzero" fill-opacity="1" /><path clip-path="url(#clip210)" d="M764.57 51.2976 Q763.72 50.3314 763.72 49.0724 Q763.72 47.8135 764.54 46.8766 Q765.389 45.9104 766.912 45.9104 Q768.698 45.9104 769.722 47.6378 Q770.747 49.3359 770.747 52.2052 Q770.747 55.3087 769.488 58.1779 Q768.229 61.0764 767 62.4525 Q765.77 63.8286 765.272 63.8286 Q764.687 63.8286 764.687 63.1845 Q764.687 62.9502 765.097 62.5111 Q769.4 57.8851 769.43 52.2052 Q769.43 51.2976 769.313 51.2976 L769.166 51.4147 Q768.141 52.2638 766.912 52.2638 Q765.419 52.2638 764.57 51.2976 Z" fill="#000000" fill-rule="nonzero" fill-opacity="1" /><path clip-path="url(#clip210)" d="M832.653 29.544 Q832.653 31.2128 831.629 32.2083 Q830.633 33.2037 829.374 33.2037 Q828.262 33.2037 827.676 32.5596 Q827.09 31.9155 827.09 31.0957 Q827.09 30.7444 827.237 30.3052 Q827.383 29.8368 827.705 29.2805 Q828.057 28.7242 828.789 28.3143 Q829.521 27.9044 830.516 27.8459 Q830.311 27.6409 830.253 27.6116 Q829.813 27.2603 828.994 27.1432 Q828.876 27.0846 828.467 27.0846 Q826.446 27.0846 824.397 28.5778 Q822.377 30.0417 819.888 32.8231 Q816.755 36.073 814.735 37.2734 Q823.606 38.4445 823.606 43.5682 Q823.606 44.4172 823.372 45.442 Q822.904 47.3743 822.904 48.7797 Q822.904 51.5904 824.807 51.5904 Q826.651 51.5904 827.822 49.7166 Q829.023 47.8428 830.018 44.183 Q830.165 43.5096 830.311 43.3047 Q830.457 43.0997 830.867 43.0997 Q831.599 43.0997 831.599 43.6853 Q830.926 47.1108 829.433 49.7458 Q827.53 52.9371 824.69 52.9371 Q822.318 52.9371 820.737 51.2976 Q819.185 49.6287 819.185 46.9937 Q819.185 46.3496 819.42 44.8857 Q819.595 44.3001 819.595 43.6267 Q819.595 42.2507 818.834 41.2259 Q818.073 40.1719 816.843 39.6449 Q815.613 39.1179 814.589 38.8837 Q813.593 38.6202 812.627 38.5323 Q809.699 50.917 809.289 51.6782 Q809.026 52.2052 808.44 52.5565 Q807.855 52.9371 807.24 52.9371 Q806.654 52.9371 806.069 52.5273 Q805.513 52.1466 805.513 51.239 Q805.513 50.7706 805.747 49.9215 L814.442 15.3734 L814.618 14.2023 Q814.618 13.8509 814.472 13.6753 Q814.355 13.4703 813.652 13.3239 Q812.978 13.1775 811.632 13.1775 Q811.075 13.1775 810.812 13.1483 Q810.578 13.119 810.373 12.9726 Q810.168 12.7969 810.168 12.4456 Q810.168 11.9479 810.373 11.6844 Q810.607 11.3916 810.783 11.333 Q810.958 11.2745 811.31 11.2452 Q811.807 11.2159 813.476 11.0695 Q815.145 10.8939 816.58 10.7767 Q818.014 10.6596 818.629 10.6596 Q818.98 10.6596 819.156 10.8353 Q819.361 10.9817 819.39 11.1574 L819.42 11.3038 L813.183 36.6 Q815.76 35.5753 819.83 31.0372 Q824.543 25.7671 828.584 25.7671 Q830.487 25.7671 831.57 26.9382 Q832.653 28.0801 832.653 29.544 Z" fill="#000000" fill-rule="nonzero" fill-opacity="1" /><path clip-path="url(#clip210)" d="M853.089 43.1583 Q853.147 42.4263 854.289 42.4263 L891.033 42.4263 Q892.761 42.4263 892.79 43.0997 Q892.79 43.8317 891.15 43.8024 L854.699 43.8024 Q853.089 43.8317 853.089 43.1583 M853.089 31.4471 Q853.089 30.7151 854.348 30.7444 L890.975 30.7444 Q892.761 30.7444 892.79 31.4471 Q892.79 32.1204 891.267 32.1204 L854.289 32.1204 Q853.089 32.1204 853.089 31.4471 Z" fill="#000000" fill-rule="nonzero" fill-opacity="1" /><path clip-path="url(#clip210)" d="M915.917 18.0377 L915.917 16.1639 Q923.12 16.1639 926.838 12.3285 Q927.863 12.3285 928.038 12.5627 Q928.214 12.7969 928.214 13.8802 L928.214 47.5207 Q928.214 49.3067 929.092 49.8629 Q929.971 50.4192 933.806 50.4192 L935.709 50.4192 L935.709 52.2638 Q933.601 52.0881 925.989 52.0881 Q918.377 52.0881 916.298 52.2638 L916.298 50.4192 L918.201 50.4192 Q921.978 50.4192 922.885 49.8922 Q923.793 49.3359 923.793 47.5207 L923.793 16.4567 Q920.66 18.0377 915.917 18.0377 Z" fill="#000000" fill-rule="nonzero" fill-opacity="1" /><path clip-path="url(#clip210)" d="M963.154 51.2976 Q962.247 50.3314 962.247 49.0724 Q962.247 47.8135 963.154 46.9059 Q964.062 45.969 965.438 45.969 Q966.755 45.969 967.634 46.8473 Q968.541 47.6964 968.541 49.1017 Q968.541 50.4778 967.575 51.3854 Q966.638 52.2638 965.438 52.2638 Q964.062 52.2638 963.154 51.2976 M979.813 51.2976 Q978.906 50.3314 978.906 49.0724 Q978.906 47.8135 979.813 46.9059 Q980.721 45.969 982.097 45.969 Q983.415 45.969 984.293 46.8473 Q985.201 47.6964 985.201 49.1017 Q985.201 50.4778 984.234 51.3854 Q983.298 52.2638 982.097 52.2638 Q980.721 52.2638 979.813 51.2976 M996.502 51.2976 Q995.594 50.3314 995.594 49.0724 Q995.594 47.8135 996.502 46.9059 Q997.41 45.969 998.786 45.969 Q1000.1 45.969 1000.98 46.8473 Q1001.89 47.6964 1001.89 49.1017 Q1001.89 50.4778 1000.92 51.3854 Q999.986 52.2638 998.786 52.2638 Q997.41 52.2638 996.502 51.2976 Z" fill="#000000" fill-rule="nonzero" fill-opacity="1" /><path clip-path="url(#clip210)" d="M1028.41 52.2638 Q1028.41 51.1805 1028.5 50.8584 Q1028.61 50.5363 1029.08 50.0386 L1040.59 37.2148 Q1046.88 30.1295 1046.88 23.9519 Q1046.88 19.9408 1044.78 17.0715 Q1042.7 14.2023 1038.86 14.2023 Q1036.23 14.2023 1034 15.8126 Q1031.78 17.4229 1030.75 20.2921 Q1030.93 20.2336 1031.54 20.2336 Q1033.04 20.2336 1033.86 21.1705 Q1034.7 22.1074 1034.7 23.3663 Q1034.7 24.9766 1033.65 25.7671 Q1032.63 26.5283 1031.6 26.5283 Q1031.19 26.5283 1030.63 26.4405 Q1030.11 26.3527 1029.26 25.5329 Q1028.41 24.6838 1028.41 23.1906 Q1028.41 19.0039 1031.57 15.6662 Q1034.76 12.3285 1039.62 12.3285 Q1045.13 12.3285 1048.73 15.6076 Q1052.36 18.8575 1052.36 23.9519 Q1052.36 25.7378 1051.8 27.3774 Q1051.28 28.9877 1050.54 30.2467 Q1049.84 31.5056 1047.91 33.5258 Q1045.98 35.546 1044.42 36.9806 Q1042.87 38.4152 1039.39 41.4601 L1033.04 47.6378 L1043.84 47.6378 Q1049.11 47.6378 1049.52 47.1694 Q1050.1 46.3203 1050.84 41.8408 L1052.36 41.8408 L1050.66 52.2638 L1028.41 52.2638 Z" fill="#000000" fill-rule="nonzero" fill-opacity="1" /><path clip-path="url(#clip210)" d="M1094.62 19.0917 Q1094.62 18.1255 1094.35 17.335 Q1094.12 16.5152 1093.74 15.959 Q1093.39 15.3734 1092.71 14.9342 Q1092.04 14.4658 1091.49 14.173 Q1090.93 13.8802 1089.99 13.7046 Q1089.06 13.4996 1088.44 13.4118 Q1087.83 13.2947 1086.77 13.2361 Q1085.72 13.1775 1085.19 13.1775 Q1084.69 13.1775 1083.7 13.1775 Q1080.56 13.1775 1080.04 13.2361 Q1079.25 13.3532 1078.95 13.8217 Q1078.66 14.2608 1078.37 15.4612 L1074.47 31.0957 L1081.18 31.0957 Q1084.84 31.0957 1087.36 30.071 Q1089.87 29.0463 1091.31 27.6116 Q1092.89 26.0306 1093.74 23.4834 Q1094.62 20.9362 1094.62 19.0917 M1101.15 46.7009 Q1101.15 47.023 1100.88 47.7549 Q1100.65 48.4869 1100.06 49.5116 Q1099.48 50.5071 1098.69 51.4147 Q1097.9 52.3223 1096.64 52.9371 Q1095.38 53.5813 1093.94 53.5813 Q1093.59 53.5813 1093.24 53.552 Q1092.89 53.552 1092.01 53.4056 Q1091.16 53.2885 1090.46 53.0543 Q1089.76 52.8493 1088.88 52.3516 Q1088 51.8831 1087.39 51.239 Q1086.8 50.5656 1086.39 49.5116 Q1085.98 48.4283 1085.98 47.1108 Q1085.98 45.9397 1086.95 42.0164 Q1087.8 38.6787 1087.8 37.8589 Q1087.8 36.9513 1087.5 36.1023 Q1087.24 35.2532 1086.57 34.3749 Q1085.92 33.4965 1084.55 32.9695 Q1083.17 32.4132 1081.24 32.4132 L1074.12 32.4132 L1070.14 48.3112 Q1070.14 48.3405 1070.05 48.7504 Q1069.97 49.131 1069.97 49.3359 Q1069.97 49.7166 1070.2 49.9508 Q1070.46 50.185 1071.11 50.3021 Q1071.75 50.39 1072.25 50.4192 Q1072.78 50.4192 1073.86 50.4192 Q1075.21 50.4192 1075.44 50.6535 Q1075.56 50.7998 1075.56 51.0633 Q1075.56 51.4732 1075.44 51.766 Q1075.35 52.0295 1075.12 52.1174 Q1074.91 52.2052 1074.77 52.2345 Q1074.62 52.2638 1074.36 52.2638 L1066.75 52.0881 L1059.19 52.2638 Q1058.34 52.2638 1058.34 51.5904 Q1058.34 51.0048 1058.55 50.7706 Q1058.75 50.5071 1059.02 50.4778 Q1059.28 50.4192 1059.95 50.4192 Q1061.42 50.4192 1062.3 50.3314 Q1063.17 50.2436 1063.73 50.1265 Q1064.32 49.9801 1064.61 49.5702 Q1064.93 49.1603 1065.08 48.8089 Q1065.22 48.4283 1065.43 47.5793 L1073.45 15.3734 Q1073.68 14.4072 1073.68 14.2608 Q1073.68 13.7046 1073.33 13.5582 Q1073.01 13.3825 1072.07 13.2947 L1069.79 13.1775 Q1069.09 13.1775 1068.79 13.1483 Q1068.53 13.119 1068.33 12.9726 Q1068.12 12.8262 1068.12 12.5042 Q1068.12 11.6844 1068.47 11.5087 Q1068.82 11.3038 1069.85 11.3038 L1086.95 11.3038 Q1092.77 11.3038 1096.46 13.8509 Q1100.18 16.3981 1100.18 20.2921 Q1100.18 22.0488 1099.39 23.6884 Q1098.6 25.3279 1097.28 26.6162 Q1095.99 27.9044 1094.27 28.9877 Q1092.54 30.0417 1090.69 30.7737 Q1088.88 31.4763 1087.01 31.8862 Q1087.83 32.179 1088.59 32.6182 Q1089.38 33.0573 1090.37 33.8771 Q1091.4 34.6969 1092.01 36.0144 Q1092.63 37.3319 1092.63 38.9422 Q1092.63 40.0841 1092.39 41.7822 Q1091.81 46.6131 1091.81 48.604 Q1091.81 50.5071 1092.31 51.3854 Q1092.8 52.2638 1094.21 52.2638 Q1095.58 52.2638 1097.11 51.0341 Q1098.66 49.7751 1099.65 46.818 Q1099.89 45.969 1100.44 45.969 Q1100.47 45.969 1100.5 45.969 Q1100.56 45.969 1100.68 46.0275 Q1100.8 46.0568 1100.88 46.1446 Q1101 46.2032 1101.06 46.3496 Q1101.15 46.496 1101.15 46.7009 Z" fill="#000000" fill-rule="nonzero" fill-opacity="1" /><path clip-path="url(#clip212)" d="M205.97 832.271 L205.97 1016.92 L224.937 1016.92 L224.937 832.271 L205.97 832.271 L205.97 832.271  Z" fill="#009af9" fill-rule="evenodd" fill-opacity="1"/>
<polyline clip-path="url(#clip212)" style="stroke:#000000; stroke-linecap:round; stroke-linejoin:round; stroke-width:4; stroke-opacity:1; fill:none" points="205.97,832.271 205.97,1016.92 224.937,1016.92 224.937,832.271 205.97,832.271 "/>
<path clip-path="url(#clip212)" d="M476.93 886.356 L476.93 1016.92 L495.897 1016.92 L495.897 886.356 L476.93 886.356 L476.93 886.356  Z" fill="#009af9" fill-rule="evenodd" fill-opacity="1"/>
<polyline clip-path="url(#clip212)" style="stroke:#000000; stroke-linecap:round; stroke-linejoin:round; stroke-width:4; stroke-opacity:1; fill:none" points="476.93,886.356 476.93,1016.92 495.897,1016.92 495.897,886.356 476.93,886.356 "/>
<path clip-path="url(#clip212)" d="M747.89 850.497 L747.89 1016.92 L766.857 1016.92 L766.857 850.497 L747.89 850.497 L747.89 850.497  Z" fill="#009af9" fill-rule="evenodd" fill-opacity="1"/>
<polyline clip-path="url(#clip212)" style="stroke:#000000; stroke-linecap:round; stroke-linejoin:round; stroke-width:4; stroke-opacity:1; fill:none" points="747.89,850.497 747.89,1016.92 766.857,1016.92 766.857,850.497 747.89,850.497 "/>
<path clip-path="url(#clip212)" d="M1018.85 850.497 L1018.85 1016.92 L1037.82 1016.92 L1037.82 850.497 L1018.85 850.497 L1018.85 850.497  Z" fill="#009af9" fill-rule="evenodd" fill-opacity="1"/>
<polyline clip-path="url(#clip212)" style="stroke:#000000; stroke-linecap:round; stroke-linejoin:round; stroke-width:4; stroke-opacity:1; fill:none" points="1018.85,850.497 1018.85,1016.92 1037.82,1016.92 1037.82,850.497 1018.85,850.497 "/>
<path clip-path="url(#clip212)" d="M1289.81 837.849 L1289.81 1016.92 L1308.78 1016.92 L1308.78 837.849 L1289.81 837.849 L1289.81 837.849  Z" fill="#009af9" fill-rule="evenodd" fill-opacity="1"/>
<polyline clip-path="url(#clip212)" style="stroke:#000000; stroke-linecap:round; stroke-linejoin:round; stroke-width:4; stroke-opacity:1; fill:none" points="1289.81,837.849 1289.81,1016.92 1308.78,1016.92 1308.78,837.849 1289.81,837.849 "/>
<circle clip-path="url(#clip212)" style="fill:#009af9; stroke:none; fill-opacity:0" cx="215.454" cy="832.271" r="2"/>
<circle clip-path="url(#clip212)" style="fill:#009af9; stroke:none; fill-opacity:0" cx="486.414" cy="886.356" r="2"/>
<circle clip-path="url(#clip212)" style="fill:#009af9; stroke:none; fill-opacity:0" cx="757.373" cy="850.497" r="2"/>
<circle clip-path="url(#clip212)" style="fill:#009af9; stroke:none; fill-opacity:0" cx="1028.33" cy="850.497" r="2"/>
<circle clip-path="url(#clip212)" style="fill:#009af9; stroke:none; fill-opacity:0" cx="1299.29" cy="837.849" r="2"/>
<path clip-path="url(#clip212)" d="M224.937 836.967 L224.937 1016.92 L243.905 1016.92 L243.905 836.967 L224.937 836.967 L224.937 836.967  Z" fill="#e26f46" fill-rule="evenodd" fill-opacity="1"/>
<polyline clip-path="url(#clip212)" style="stroke:#000000; stroke-linecap:round; stroke-linejoin:round; stroke-width:4; stroke-opacity:1; fill:none" points="224.937,836.967 224.937,1016.92 243.905,1016.92 243.905,836.967 224.937,836.967 "/>
<path clip-path="url(#clip212)" d="M495.897 884.652 L495.897 1016.92 L514.864 1016.92 L514.864 884.652 L495.897 884.652 L495.897 884.652  Z" fill="#e26f46" fill-rule="evenodd" fill-opacity="1"/>
<polyline clip-path="url(#clip212)" style="stroke:#000000; stroke-linecap:round; stroke-linejoin:round; stroke-width:4; stroke-opacity:1; fill:none" points="495.897,884.652 495.897,1016.92 514.864,1016.92 514.864,884.652 495.897,884.652 "/>
<path clip-path="url(#clip212)" d="M766.857 866.206 L766.857 1016.92 L785.824 1016.92 L785.824 866.206 L766.857 866.206 L766.857 866.206  Z" fill="#e26f46" fill-rule="evenodd" fill-opacity="1"/>
<polyline clip-path="url(#clip212)" style="stroke:#000000; stroke-linecap:round; stroke-linejoin:round; stroke-width:4; stroke-opacity:1; fill:none" points="766.857,866.206 766.857,1016.92 785.824,1016.92 785.824,866.206 766.857,866.206 "/>
<path clip-path="url(#clip212)" d="M1037.82 846.007 L1037.82 1016.92 L1056.78 1016.92 L1056.78 846.007 L1037.82 846.007 L1037.82 846.007  Z" fill="#e26f46" fill-rule="evenodd" fill-opacity="1"/>
<polyline clip-path="url(#clip212)" style="stroke:#000000; stroke-linecap:round; stroke-linejoin:round; stroke-width:4; stroke-opacity:1; fill:none" points="1037.82,846.007 1037.82,1016.92 1056.78,1016.92 1056.78,846.007 1037.82,846.007 "/>
<path clip-path="url(#clip212)" d="M1308.78 837.849 L1308.78 1016.92 L1327.74 1016.92 L1327.74 837.849 L1308.78 837.849 L1308.78 837.849  Z" fill="#e26f46" fill-rule="evenodd" fill-opacity="1"/>
<polyline clip-path="url(#clip212)" style="stroke:#000000; stroke-linecap:round; stroke-linejoin:round; stroke-width:4; stroke-opacity:1; fill:none" points="1308.78,837.849 1308.78,1016.92 1327.74,1016.92 1327.74,837.849 1308.78,837.849 "/>
<circle clip-path="url(#clip212)" style="fill:#e26f46; stroke:none; fill-opacity:0" cx="234.421" cy="836.967" r="2"/>
<circle clip-path="url(#clip212)" style="fill:#e26f46; stroke:none; fill-opacity:0" cx="505.381" cy="884.652" r="2"/>
<circle clip-path="url(#clip212)" style="fill:#e26f46; stroke:none; fill-opacity:0" cx="776.341" cy="866.206" r="2"/>
<circle clip-path="url(#clip212)" style="fill:#e26f46; stroke:none; fill-opacity:0" cx="1047.3" cy="846.007" r="2"/>
<circle clip-path="url(#clip212)" style="fill:#e26f46; stroke:none; fill-opacity:0" cx="1318.26" cy="837.849" r="2"/>
<path clip-path="url(#clip212)" d="M243.905 1016.92 L243.905 1016.92 L262.872 1016.92 L262.872 1016.92 L243.905 1016.92 L243.905 1016.92  Z" fill="#3da44d" fill-rule="evenodd" fill-opacity="1"/>
<polyline clip-path="url(#clip212)" style="stroke:#000000; stroke-linecap:round; stroke-linejoin:round; stroke-width:4; stroke-opacity:1; fill:none" points="243.905,1016.92 243.905,1016.92 262.872,1016.92 243.905,1016.92 "/>
<path clip-path="url(#clip212)" d="M514.864 839.847 L514.864 1016.92 L533.832 1016.92 L533.832 839.847 L514.864 839.847 L514.864 839.847  Z" fill="#3da44d" fill-rule="evenodd" fill-opacity="1"/>
<polyline clip-path="url(#clip212)" style="stroke:#000000; stroke-linecap:round; stroke-linejoin:round; stroke-width:4; stroke-opacity:1; fill:none" points="514.864,839.847 514.864,1016.92 533.832,1016.92 533.832,839.847 514.864,839.847 "/>
<path clip-path="url(#clip212)" d="M785.824 675.706 L785.824 1016.92 L804.791 1016.92 L804.791 675.706 L785.824 675.706 L785.824 675.706  Z" fill="#3da44d" fill-rule="evenodd" fill-opacity="1"/>
<polyline clip-path="url(#clip212)" style="stroke:#000000; stroke-linecap:round; stroke-linejoin:round; stroke-width:4; stroke-opacity:1; fill:none" points="785.824,675.706 785.824,1016.92 804.791,1016.92 804.791,675.706 785.824,675.706 "/>
<path clip-path="url(#clip212)" d="M1056.78 716.958 L1056.78 1016.92 L1075.75 1016.92 L1075.75 716.958 L1056.78 716.958 L1056.78 716.958  Z" fill="#3da44d" fill-rule="evenodd" fill-opacity="1"/>
<polyline clip-path="url(#clip212)" style="stroke:#000000; stroke-linecap:round; stroke-linejoin:round; stroke-width:4; stroke-opacity:1; fill:none" points="1056.78,716.958 1056.78,1016.92 1075.75,1016.92 1075.75,716.958 1056.78,716.958 "/>
<path clip-path="url(#clip212)" d="M1327.74 749.405 L1327.74 1016.92 L1346.71 1016.92 L1346.71 749.405 L1327.74 749.405 L1327.74 749.405  Z" fill="#3da44d" fill-rule="evenodd" fill-opacity="1"/>
<polyline clip-path="url(#clip212)" style="stroke:#000000; stroke-linecap:round; stroke-linejoin:round; stroke-width:4; stroke-opacity:1; fill:none" points="1327.74,749.405 1327.74,1016.92 1346.71,1016.92 1346.71,749.405 1327.74,749.405 "/>
<circle clip-path="url(#clip212)" style="fill:#3da44d; stroke:none; fill-opacity:0" cx="253.388" cy="1016.92" r="2"/>
<circle clip-path="url(#clip212)" style="fill:#3da44d; stroke:none; fill-opacity:0" cx="524.348" cy="839.847" r="2"/>
<circle clip-path="url(#clip212)" style="fill:#3da44d; stroke:none; fill-opacity:0" cx="795.308" cy="675.706" r="2"/>
<circle clip-path="url(#clip212)" style="fill:#3da44d; stroke:none; fill-opacity:0" cx="1066.27" cy="716.958" r="2"/>
<circle clip-path="url(#clip212)" style="fill:#3da44d; stroke:none; fill-opacity:0" cx="1337.23" cy="749.405" r="2"/>
<path clip-path="url(#clip212)" d="M262.872 1016.92 L262.872 1016.92 L281.839 1016.92 L281.839 1016.92 L262.872 1016.92 L262.872 1016.92  Z" fill="#c271d2" fill-rule="evenodd" fill-opacity="1"/>
<polyline clip-path="url(#clip212)" style="stroke:#000000; stroke-linecap:round; stroke-linejoin:round; stroke-width:4; stroke-opacity:1; fill:none" points="262.872,1016.92 262.872,1016.92 281.839,1016.92 262.872,1016.92 "/>
<path clip-path="url(#clip212)" d="M533.832 561.415 L533.832 1016.92 L552.799 1016.92 L552.799 561.415 L533.832 561.415 L533.832 561.415  Z" fill="#c271d2" fill-rule="evenodd" fill-opacity="1"/>
<polyline clip-path="url(#clip212)" style="stroke:#000000; stroke-linecap:round; stroke-linejoin:round; stroke-width:4; stroke-opacity:1; fill:none" points="533.832,561.415 533.832,1016.92 552.799,1016.92 552.799,561.415 533.832,561.415 "/>
<path clip-path="url(#clip212)" d="M804.791 749.096 L804.791 1016.92 L823.759 1016.92 L823.759 749.096 L804.791 749.096 L804.791 749.096  Z" fill="#c271d2" fill-rule="evenodd" fill-opacity="1"/>
<polyline clip-path="url(#clip212)" style="stroke:#000000; stroke-linecap:round; stroke-linejoin:round; stroke-width:4; stroke-opacity:1; fill:none" points="804.791,749.096 804.791,1016.92 823.759,1016.92 823.759,749.096 804.791,749.096 "/>
<path clip-path="url(#clip212)" d="M1075.75 717.741 L1075.75 1016.92 L1094.72 1016.92 L1094.72 717.741 L1075.75 717.741 L1075.75 717.741  Z" fill="#c271d2" fill-rule="evenodd" fill-opacity="1"/>
<polyline clip-path="url(#clip212)" style="stroke:#000000; stroke-linecap:round; stroke-linejoin:round; stroke-width:4; stroke-opacity:1; fill:none" points="1075.75,717.741 1075.75,1016.92 1094.72,1016.92 1094.72,717.741 1075.75,717.741 "/>
<path clip-path="url(#clip212)" d="M1346.71 709.482 L1346.71 1016.92 L1365.68 1016.92 L1365.68 709.482 L1346.71 709.482 L1346.71 709.482  Z" fill="#c271d2" fill-rule="evenodd" fill-opacity="1"/>
<polyline clip-path="url(#clip212)" style="stroke:#000000; stroke-linecap:round; stroke-linejoin:round; stroke-width:4; stroke-opacity:1; fill:none" points="1346.71,709.482 1346.71,1016.92 1365.68,1016.92 1365.68,709.482 1346.71,709.482 "/>
<circle clip-path="url(#clip212)" style="fill:#c271d2; stroke:none; fill-opacity:0" cx="272.355" cy="1016.92" r="2"/>
<circle clip-path="url(#clip212)" style="fill:#c271d2; stroke:none; fill-opacity:0" cx="543.315" cy="561.415" r="2"/>
<circle clip-path="url(#clip212)" style="fill:#c271d2; stroke:none; fill-opacity:0" cx="814.275" cy="749.096" r="2"/>
<circle clip-path="url(#clip212)" style="fill:#c271d2; stroke:none; fill-opacity:0" cx="1085.23" cy="717.741" r="2"/>
<circle clip-path="url(#clip212)" style="fill:#c271d2; stroke:none; fill-opacity:0" cx="1356.19" cy="709.482" r="2"/>
<path clip-path="url(#clip212)" d="M281.839 1016.92 L281.839 1016.92 L300.806 1016.92 L300.806 1016.92 L281.839 1016.92 L281.839 1016.92  Z" fill="#ac8d18" fill-rule="evenodd" fill-opacity="1"/>
<polyline clip-path="url(#clip212)" style="stroke:#000000; stroke-linecap:round; stroke-linejoin:round; stroke-width:4; stroke-opacity:1; fill:none" points="281.839,1016.92 281.839,1016.92 300.806,1016.92 281.839,1016.92 "/>
<path clip-path="url(#clip212)" d="M552.799 1016.92 L552.799 1016.92 L571.766 1016.92 L571.766 1016.92 L552.799 1016.92 L552.799 1016.92  Z" fill="#ac8d18" fill-rule="evenodd" fill-opacity="1"/>
<polyline clip-path="url(#clip212)" style="stroke:#000000; stroke-linecap:round; stroke-linejoin:round; stroke-width:4; stroke-opacity:1; fill:none" points="552.799,1016.92 552.799,1016.92 571.766,1016.92 552.799,1016.92 "/>
<path clip-path="url(#clip212)" d="M823.759 527.236 L823.759 1016.92 L842.726 1016.92 L842.726 527.236 L823.759 527.236 L823.759 527.236  Z" fill="#ac8d18" fill-rule="evenodd" fill-opacity="1"/>
<polyline clip-path="url(#clip212)" style="stroke:#000000; stroke-linecap:round; stroke-linejoin:round; stroke-width:4; stroke-opacity:1; fill:none" points="823.759,527.236 823.759,1016.92 842.726,1016.92 842.726,527.236 823.759,527.236 "/>
<path clip-path="url(#clip212)" d="M1094.72 214.968 L1094.72 1016.92 L1113.69 1016.92 L1113.69 214.968 L1094.72 214.968 L1094.72 214.968  Z" fill="#ac8d18" fill-rule="evenodd" fill-opacity="1"/>
<polyline clip-path="url(#clip212)" style="stroke:#000000; stroke-linecap:round; stroke-linejoin:round; stroke-width:4; stroke-opacity:1; fill:none" points="1094.72,214.968 1094.72,1016.92 1113.69,1016.92 1113.69,214.968 1094.72,214.968 "/>
<path clip-path="url(#clip212)" d="M1365.68 111.592 L1365.68 1016.92 L1384.65 1016.92 L1384.65 111.592 L1365.68 111.592 L1365.68 111.592  Z" fill="#ac8d18" fill-rule="evenodd" fill-opacity="1"/>
<polyline clip-path="url(#clip212)" style="stroke:#000000; stroke-linecap:round; stroke-linejoin:round; stroke-width:4; stroke-opacity:1; fill:none" points="1365.68,111.592 1365.68,1016.92 1384.65,1016.92 1384.65,111.592 1365.68,111.592 "/>
<circle clip-path="url(#clip212)" style="fill:#ac8d18; stroke:none; fill-opacity:0" cx="291.322" cy="1016.92" r="2"/>
<circle clip-path="url(#clip212)" style="fill:#ac8d18; stroke:none; fill-opacity:0" cx="562.282" cy="1016.92" r="2"/>
<circle clip-path="url(#clip212)" style="fill:#ac8d18; stroke:none; fill-opacity:0" cx="833.242" cy="527.236" r="2"/>
<circle clip-path="url(#clip212)" style="fill:#ac8d18; stroke:none; fill-opacity:0" cx="1104.2" cy="214.968" r="2"/>
<circle clip-path="url(#clip212)" style="fill:#ac8d18; stroke:none; fill-opacity:0" cx="1375.16" cy="111.592" r="2"/>
<path clip-path="url(#clip212)" d="M300.806 1016.92 L300.806 1016.92 L319.773 1016.92 L319.773 1016.92 L300.806 1016.92 L300.806 1016.92  Z" fill="#00a9ad" fill-rule="evenodd" fill-opacity="1"/>
<polyline clip-path="url(#clip212)" style="stroke:#000000; stroke-linecap:round; stroke-linejoin:round; stroke-width:4; stroke-opacity:1; fill:none" points="300.806,1016.92 300.806,1016.92 319.773,1016.92 300.806,1016.92 "/>
<path clip-path="url(#clip212)" d="M571.766 1016.92 L571.766 1016.92 L590.733 1016.92 L590.733 1016.92 L571.766 1016.92 L571.766 1016.92  Z" fill="#00a9ad" fill-rule="evenodd" fill-opacity="1"/>
<polyline clip-path="url(#clip212)" style="stroke:#000000; stroke-linecap:round; stroke-linejoin:round; stroke-width:4; stroke-opacity:1; fill:none" points="571.766,1016.92 571.766,1016.92 590.733,1016.92 571.766,1016.92 "/>
<path clip-path="url(#clip212)" d="M842.726 542.654 L842.726 1016.92 L861.693 1016.92 L861.693 542.654 L842.726 542.654 L842.726 542.654  Z" fill="#00a9ad" fill-rule="evenodd" fill-opacity="1"/>
<polyline clip-path="url(#clip212)" style="stroke:#000000; stroke-linecap:round; stroke-linejoin:round; stroke-width:4; stroke-opacity:1; fill:none" points="842.726,542.654 842.726,1016.92 861.693,1016.92 861.693,542.654 842.726,542.654 "/>
<path clip-path="url(#clip212)" d="M1113.69 653.997 L1113.69 1016.92 L1132.65 1016.92 L1132.65 653.997 L1113.69 653.997 L1113.69 653.997  Z" fill="#00a9ad" fill-rule="evenodd" fill-opacity="1"/>
<polyline clip-path="url(#clip212)" style="stroke:#000000; stroke-linecap:round; stroke-linejoin:round; stroke-width:4; stroke-opacity:1; fill:none" points="1113.69,653.997 1113.69,1016.92 1132.65,1016.92 1132.65,653.997 1113.69,653.997 "/>
<path clip-path="url(#clip212)" d="M1384.65 111.592 L1384.65 1016.92 L1403.61 1016.92 L1403.61 111.592 L1384.65 111.592 L1384.65 111.592  Z" fill="#00a9ad" fill-rule="evenodd" fill-opacity="1"/>
<polyline clip-path="url(#clip212)" style="stroke:#000000; stroke-linecap:round; stroke-linejoin:round; stroke-width:4; stroke-opacity:1; fill:none" points="1384.65,111.592 1384.65,1016.92 1403.61,1016.92 1403.61,111.592 1384.65,111.592 "/>
<circle clip-path="url(#clip212)" style="fill:#00a9ad; stroke:none; fill-opacity:0" cx="310.29" cy="1016.92" r="2"/>
<circle clip-path="url(#clip212)" style="fill:#00a9ad; stroke:none; fill-opacity:0" cx="581.249" cy="1016.92" r="2"/>
<circle clip-path="url(#clip212)" style="fill:#00a9ad; stroke:none; fill-opacity:0" cx="852.209" cy="542.654" r="2"/>
<circle clip-path="url(#clip212)" style="fill:#00a9ad; stroke:none; fill-opacity:0" cx="1123.17" cy="653.997" r="2"/>
<circle clip-path="url(#clip212)" style="fill:#00a9ad; stroke:none; fill-opacity:0" cx="1394.13" cy="111.592" r="2"/>
<path clip-path="url(#clip212)" d="M319.773 1016.92 L319.773 1016.92 L338.74 1016.92 L338.74 1016.92 L319.773 1016.92 L319.773 1016.92  Z" fill="#ed5d92" fill-rule="evenodd" fill-opacity="1"/>
<polyline clip-path="url(#clip212)" style="stroke:#000000; stroke-linecap:round; stroke-linejoin:round; stroke-width:4; stroke-opacity:1; fill:none" points="319.773,1016.92 319.773,1016.92 338.74,1016.92 319.773,1016.92 "/>
<path clip-path="url(#clip212)" d="M590.733 1016.92 L590.733 1016.92 L609.7 1016.92 L609.7 1016.92 L590.733 1016.92 L590.733 1016.92  Z" fill="#ed5d92" fill-rule="evenodd" fill-opacity="1"/>
<polyline clip-path="url(#clip212)" style="stroke:#000000; stroke-linecap:round; stroke-linejoin:round; stroke-width:4; stroke-opacity:1; fill:none" points="590.733,1016.92 590.733,1016.92 609.7,1016.92 590.733,1016.92 "/>
<path clip-path="url(#clip212)" d="M861.693 1016.92 L861.693 1016.92 L880.66 1016.92 L880.66 1016.92 L861.693 1016.92 L861.693 1016.92  Z" fill="#ed5d92" fill-rule="evenodd" fill-opacity="1"/>
<polyline clip-path="url(#clip212)" style="stroke:#000000; stroke-linecap:round; stroke-linejoin:round; stroke-width:4; stroke-opacity:1; fill:none" points="861.693,1016.92 861.693,1016.92 880.66,1016.92 861.693,1016.92 "/>
<path clip-path="url(#clip212)" d="M1132.65 375.973 L1132.65 1016.92 L1151.62 1016.92 L1151.62 375.973 L1132.65 375.973 L1132.65 375.973  Z" fill="#ed5d92" fill-rule="evenodd" fill-opacity="1"/>
<polyline clip-path="url(#clip212)" style="stroke:#000000; stroke-linecap:round; stroke-linejoin:round; stroke-width:4; stroke-opacity:1; fill:none" points="1132.65,375.973 1132.65,1016.92 1151.62,1016.92 1151.62,375.973 1132.65,375.973 "/>
<path clip-path="url(#clip212)" d="M1403.61 741.756 L1403.61 1016.92 L1422.58 1016.92 L1422.58 741.756 L1403.61 741.756 L1403.61 741.756  Z" fill="#ed5d92" fill-rule="evenodd" fill-opacity="1"/>
<polyline clip-path="url(#clip212)" style="stroke:#000000; stroke-linecap:round; stroke-linejoin:round; stroke-width:4; stroke-opacity:1; fill:none" points="1403.61,741.756 1403.61,1016.92 1422.58,1016.92 1422.58,741.756 1403.61,741.756 "/>
<circle clip-path="url(#clip212)" style="fill:#ed5d92; stroke:none; fill-opacity:0" cx="329.257" cy="1016.92" r="2"/>
<circle clip-path="url(#clip212)" style="fill:#ed5d92; stroke:none; fill-opacity:0" cx="600.217" cy="1016.92" r="2"/>
<circle clip-path="url(#clip212)" style="fill:#ed5d92; stroke:none; fill-opacity:0" cx="871.177" cy="1016.92" r="2"/>
<circle clip-path="url(#clip212)" style="fill:#ed5d92; stroke:none; fill-opacity:0" cx="1142.14" cy="375.973" r="2"/>
<circle clip-path="url(#clip212)" style="fill:#ed5d92; stroke:none; fill-opacity:0" cx="1413.1" cy="741.756" r="2"/>
<path clip-path="url(#clip212)" d="M338.74 1016.92 L338.74 1016.92 L357.708 1016.92 L357.708 1016.92 L338.74 1016.92 L338.74 1016.92  Z" fill="#c68125" fill-rule="evenodd" fill-opacity="1"/>
<polyline clip-path="url(#clip212)" style="stroke:#000000; stroke-linecap:round; stroke-linejoin:round; stroke-width:4; stroke-opacity:1; fill:none" points="338.74,1016.92 338.74,1016.92 357.708,1016.92 338.74,1016.92 "/>
<path clip-path="url(#clip212)" d="M609.7 1016.92 L609.7 1016.92 L628.667 1016.92 L628.667 1016.92 L609.7 1016.92 L609.7 1016.92  Z" fill="#c68125" fill-rule="evenodd" fill-opacity="1"/>
<polyline clip-path="url(#clip212)" style="stroke:#000000; stroke-linecap:round; stroke-linejoin:round; stroke-width:4; stroke-opacity:1; fill:none" points="609.7,1016.92 609.7,1016.92 628.667,1016.92 609.7,1016.92 "/>
<path clip-path="url(#clip212)" d="M880.66 1016.92 L880.66 1016.92 L899.627 1016.92 L899.627 1016.92 L880.66 1016.92 L880.66 1016.92  Z" fill="#c68125" fill-rule="evenodd" fill-opacity="1"/>
<polyline clip-path="url(#clip212)" style="stroke:#000000; stroke-linecap:round; stroke-linejoin:round; stroke-width:4; stroke-opacity:1; fill:none" points="880.66,1016.92 880.66,1016.92 899.627,1016.92 880.66,1016.92 "/>
<path clip-path="url(#clip212)" d="M1151.62 444.526 L1151.62 1016.92 L1170.59 1016.92 L1170.59 444.526 L1151.62 444.526 L1151.62 444.526  Z" fill="#c68125" fill-rule="evenodd" fill-opacity="1"/>
<polyline clip-path="url(#clip212)" style="stroke:#000000; stroke-linecap:round; stroke-linejoin:round; stroke-width:4; stroke-opacity:1; fill:none" points="1151.62,444.526 1151.62,1016.92 1170.59,1016.92 1170.59,444.526 1151.62,444.526 "/>
<path clip-path="url(#clip212)" d="M1422.58 732.77 L1422.58 1016.92 L1441.55 1016.92 L1441.55 732.77 L1422.58 732.77 L1422.58 732.77  Z" fill="#c68125" fill-rule="evenodd" fill-opacity="1"/>
<polyline clip-path="url(#clip212)" style="stroke:#000000; stroke-linecap:round; stroke-linejoin:round; stroke-width:4; stroke-opacity:1; fill:none" points="1422.58,732.77 1422.58,1016.92 1441.55,1016.92 1441.55,732.77 1422.58,732.77 "/>
<circle clip-path="url(#clip212)" style="fill:#c68125; stroke:none; fill-opacity:0" cx="348.224" cy="1016.92" r="2"/>
<circle clip-path="url(#clip212)" style="fill:#c68125; stroke:none; fill-opacity:0" cx="619.184" cy="1016.92" r="2"/>
<circle clip-path="url(#clip212)" style="fill:#c68125; stroke:none; fill-opacity:0" cx="890.144" cy="1016.92" r="2"/>
<circle clip-path="url(#clip212)" style="fill:#c68125; stroke:none; fill-opacity:0" cx="1161.1" cy="444.526" r="2"/>
<circle clip-path="url(#clip212)" style="fill:#c68125; stroke:none; fill-opacity:0" cx="1432.06" cy="732.77" r="2"/>
<path clip-path="url(#clip212)" d="M357.708 1016.92 L357.708 1016.92 L376.675 1016.92 L376.675 1016.92 L357.708 1016.92 L357.708 1016.92  Z" fill="#00a98d" fill-rule="evenodd" fill-opacity="1"/>
<polyline clip-path="url(#clip212)" style="stroke:#000000; stroke-linecap:round; stroke-linejoin:round; stroke-width:4; stroke-opacity:1; fill:none" points="357.708,1016.92 357.708,1016.92 376.675,1016.92 357.708,1016.92 "/>
<path clip-path="url(#clip212)" d="M628.667 1016.92 L628.667 1016.92 L647.635 1016.92 L647.635 1016.92 L628.667 1016.92 L628.667 1016.92  Z" fill="#00a98d" fill-rule="evenodd" fill-opacity="1"/>
<polyline clip-path="url(#clip212)" style="stroke:#000000; stroke-linecap:round; stroke-linejoin:round; stroke-width:4; stroke-opacity:1; fill:none" points="628.667,1016.92 628.667,1016.92 647.635,1016.92 628.667,1016.92 "/>
<path clip-path="url(#clip212)" d="M899.627 1016.92 L899.627 1016.92 L918.594 1016.92 L918.594 1016.92 L899.627 1016.92 L899.627 1016.92  Z" fill="#00a98d" fill-rule="evenodd" fill-opacity="1"/>
<polyline clip-path="url(#clip212)" style="stroke:#000000; stroke-linecap:round; stroke-linejoin:round; stroke-width:4; stroke-opacity:1; fill:none" points="899.627,1016.92 899.627,1016.92 918.594,1016.92 899.627,1016.92 "/>
<path clip-path="url(#clip212)" d="M1170.59 1016.92 L1170.59 1016.92 L1189.55 1016.92 L1189.55 1016.92 L1170.59 1016.92 L1170.59 1016.92  Z" fill="#00a98d" fill-rule="evenodd" fill-opacity="1"/>
<polyline clip-path="url(#clip212)" style="stroke:#000000; stroke-linecap:round; stroke-linejoin:round; stroke-width:4; stroke-opacity:1; fill:none" points="1170.59,1016.92 1170.59,1016.92 1189.55,1016.92 1170.59,1016.92 "/>
<path clip-path="url(#clip212)" d="M1441.55 311.612 L1441.55 1016.92 L1460.51 1016.92 L1460.51 311.612 L1441.55 311.612 L1441.55 311.612  Z" fill="#00a98d" fill-rule="evenodd" fill-opacity="1"/>
<polyline clip-path="url(#clip212)" style="stroke:#000000; stroke-linecap:round; stroke-linejoin:round; stroke-width:4; stroke-opacity:1; fill:none" points="1441.55,311.612 1441.55,1016.92 1460.51,1016.92 1460.51,311.612 1441.55,311.612 "/>
<circle clip-path="url(#clip212)" style="fill:#00a98d; stroke:none; fill-opacity:0" cx="367.191" cy="1016.92" r="2"/>
<circle clip-path="url(#clip212)" style="fill:#00a98d; stroke:none; fill-opacity:0" cx="638.151" cy="1016.92" r="2"/>
<circle clip-path="url(#clip212)" style="fill:#00a98d; stroke:none; fill-opacity:0" cx="909.111" cy="1016.92" r="2"/>
<circle clip-path="url(#clip212)" style="fill:#00a98d; stroke:none; fill-opacity:0" cx="1180.07" cy="1016.92" r="2"/>
<circle clip-path="url(#clip212)" style="fill:#00a98d; stroke:none; fill-opacity:0" cx="1451.03" cy="311.612" r="2"/>
<path clip-path="url(#clip212)" d="M376.675 1016.92 L376.675 1016.92 L395.642 1016.92 L395.642 1016.92 L376.675 1016.92 L376.675 1016.92  Z" fill="#8e971d" fill-rule="evenodd" fill-opacity="1"/>
<polyline clip-path="url(#clip212)" style="stroke:#000000; stroke-linecap:round; stroke-linejoin:round; stroke-width:4; stroke-opacity:1; fill:none" points="376.675,1016.92 376.675,1016.92 395.642,1016.92 376.675,1016.92 "/>
<path clip-path="url(#clip212)" d="M647.635 1016.92 L647.635 1016.92 L666.602 1016.92 L666.602 1016.92 L647.635 1016.92 L647.635 1016.92  Z" fill="#8e971d" fill-rule="evenodd" fill-opacity="1"/>
<polyline clip-path="url(#clip212)" style="stroke:#000000; stroke-linecap:round; stroke-linejoin:round; stroke-width:4; stroke-opacity:1; fill:none" points="647.635,1016.92 647.635,1016.92 666.602,1016.92 647.635,1016.92 "/>
<path clip-path="url(#clip212)" d="M918.594 1016.92 L918.594 1016.92 L937.562 1016.92 L937.562 1016.92 L918.594 1016.92 L918.594 1016.92  Z" fill="#8e971d" fill-rule="evenodd" fill-opacity="1"/>
<polyline clip-path="url(#clip212)" style="stroke:#000000; stroke-linecap:round; stroke-linejoin:round; stroke-width:4; stroke-opacity:1; fill:none" points="918.594,1016.92 918.594,1016.92 937.562,1016.92 918.594,1016.92 "/>
<path clip-path="url(#clip212)" d="M1189.55 1016.92 L1189.55 1016.92 L1208.52 1016.92 L1208.52 1016.92 L1189.55 1016.92 L1189.55 1016.92  Z" fill="#8e971d" fill-rule="evenodd" fill-opacity="1"/>
<polyline clip-path="url(#clip212)" style="stroke:#000000; stroke-linecap:round; stroke-linejoin:round; stroke-width:4; stroke-opacity:1; fill:none" points="1189.55,1016.92 1189.55,1016.92 1208.52,1016.92 1189.55,1016.92 "/>
<path clip-path="url(#clip212)" d="M1460.51 471.812 L1460.51 1016.92 L1479.48 1016.92 L1479.48 471.812 L1460.51 471.812 L1460.51 471.812  Z" fill="#8e971d" fill-rule="evenodd" fill-opacity="1"/>
<polyline clip-path="url(#clip212)" style="stroke:#000000; stroke-linecap:round; stroke-linejoin:round; stroke-width:4; stroke-opacity:1; fill:none" points="1460.51,471.812 1460.51,1016.92 1479.48,1016.92 1479.48,471.812 1460.51,471.812 "/>
<circle clip-path="url(#clip212)" style="fill:#8e971d; stroke:none; fill-opacity:0" cx="386.158" cy="1016.92" r="2"/>
<circle clip-path="url(#clip212)" style="fill:#8e971d; stroke:none; fill-opacity:0" cx="657.118" cy="1016.92" r="2"/>
<circle clip-path="url(#clip212)" style="fill:#8e971d; stroke:none; fill-opacity:0" cx="928.078" cy="1016.92" r="2"/>
<circle clip-path="url(#clip212)" style="fill:#8e971d; stroke:none; fill-opacity:0" cx="1199.04" cy="1016.92" r="2"/>
<circle clip-path="url(#clip212)" style="fill:#8e971d; stroke:none; fill-opacity:0" cx="1470" cy="471.812" r="2"/>
<circle clip-path="url(#clip212)" cx="300.806" cy="834.619" r="14.4" fill="#00a8cb" fill-rule="evenodd" fill-opacity="1" stroke="#000000" stroke-opacity="1" stroke-width="2.4"/>
<circle clip-path="url(#clip212)" cx="571.766" cy="793.067" r="14.4" fill="#00a8cb" fill-rule="evenodd" fill-opacity="1" stroke="#000000" stroke-opacity="1" stroke-width="2.4"/>
<circle clip-path="url(#clip212)" cx="842.726" cy="701.899" r="14.4" fill="#00a8cb" fill-rule="evenodd" fill-opacity="1" stroke="#000000" stroke-opacity="1" stroke-width="2.4"/>
<circle clip-path="url(#clip212)" cx="1113.69" cy="602.583" r="14.4" fill="#00a8cb" fill-rule="evenodd" fill-opacity="1" stroke="#000000" stroke-opacity="1" stroke-width="2.4"/>
<circle clip-path="url(#clip212)" cx="1384.65" cy="561.572" r="14.4" fill="#00a8cb" fill-rule="evenodd" fill-opacity="1" stroke="#000000" stroke-opacity="1" stroke-width="2.4"/>
<polyline clip-path="url(#clip212)" style="stroke:#000000; stroke-linecap:round; stroke-linejoin:round; stroke-width:4; stroke-opacity:1; fill:none" points="300.806,834.619 571.766,793.067 842.726,701.899 1113.69,602.583 1384.65,561.572 "/>
</svg>
